<svg width="300" height="59" viewBox="0 0 300 59" fill="none" xmlns="http://www.w3.org/2000/svg">
<g clip-path="url(#clip0_75_3)">
<path d="M76.025 48.1315V13.3526H93.125C97.525 13.3526 100.825 14.1806 103.025 15.8368C105.258 17.493 106.375 19.6791 106.375 22.3951C106.375 24.2168 105.925 25.8067 105.025 27.1648C104.125 28.4896 102.892 29.5165 101.325 30.2452C99.7583 30.9738 97.9583 31.3382 95.925 31.3382L96.875 29.3012C99.075 29.3012 101.025 29.6656 102.725 30.3942C104.425 31.0898 105.742 32.1332 106.675 33.5243C107.642 34.9155 108.125 36.6214 108.125 38.6418C108.125 41.6229 106.942 43.958 104.575 45.6473C102.208 47.3035 98.725 48.1315 94.125 48.1315H76.025ZM84.075 42.07H93.525C95.625 42.07 97.2083 41.7389 98.275 41.0763C99.375 40.3808 99.925 39.2877 99.925 37.7972C99.925 36.3397 99.375 35.2633 98.275 34.5677C97.2083 33.8391 95.625 33.4747 93.525 33.4747H83.475V27.6119H92.125C94.0917 27.6119 95.5917 27.2807 96.625 26.6182C97.6917 25.9227 98.225 24.8793 98.225 23.4881C98.225 22.13 97.6917 21.1199 96.625 20.4574C95.5917 19.7618 94.0917 19.414 92.125 19.414H84.075V42.07ZM113.708 48.1315V21.4014H121.508V48.1315H113.708ZM117.608 17.6751C116.174 17.6751 115.008 17.261 114.108 16.433C113.208 15.605 112.758 14.5781 112.758 13.3526C112.758 12.127 113.208 11.1002 114.108 10.2721C115.008 9.44407 116.174 9.03003 117.608 9.03003C119.041 9.03003 120.208 9.4275 121.108 10.2225C122.008 10.9843 122.458 11.978 122.458 13.2035C122.458 14.4953 122.008 15.5717 121.108 16.433C120.241 17.261 119.074 17.6751 117.608 17.6751ZM126.897 48.1315V43.4612L142.797 24.7799L144.147 27.3635H127.247V21.4014H150.447V26.0717L134.547 44.753L133.147 42.1694H150.897V48.1315H126.897ZM190.345 21.0039C192.478 21.0039 194.361 21.4345 195.995 22.2957C197.661 23.1237 198.961 24.4155 199.895 26.1711C200.861 27.8934 201.345 30.1127 201.345 32.8288V48.1315H193.545V34.0212C193.545 31.8682 193.095 30.2783 192.195 29.2515C191.295 28.2247 190.028 27.7113 188.395 27.7113C187.261 27.7113 186.245 27.9763 185.345 28.5062C184.445 29.0031 183.745 29.765 183.245 30.7917C182.745 31.8185 182.495 33.1269 182.495 34.7168V48.1315H174.695V34.0212C174.695 31.8682 174.245 30.2783 173.345 29.2515C172.478 28.2247 171.228 27.7113 169.595 27.7113C168.461 27.7113 167.445 27.9763 166.545 28.5062C165.645 29.0031 164.945 29.765 164.445 30.7917C163.945 31.8185 163.695 33.1269 163.695 34.7168V48.1315H155.895V21.4014H163.345V28.705L161.945 26.5686C162.878 24.7469 164.195 23.3722 165.895 22.4448C167.628 21.4842 169.595 21.0039 171.795 21.0039C174.261 21.0039 176.411 21.6332 178.245 22.8919C180.111 24.1174 181.345 26.0054 181.945 28.5559L179.195 27.8107C180.095 25.7239 181.528 24.0677 183.495 22.8422C185.495 21.6167 187.778 21.0039 190.345 21.0039ZM221.331 48.529C218.466 48.529 215.916 47.9328 213.681 46.7403C211.481 45.5479 209.731 43.925 208.431 41.8713C207.166 39.7846 206.531 37.4163 206.531 34.7664C206.531 32.0835 207.166 29.7153 208.431 27.6616C209.731 25.5749 211.481 23.9519 213.681 22.7926C215.916 21.6001 218.466 21.0039 221.331 21.0039C224.166 21.0039 226.698 21.6001 228.931 22.7926C231.166 23.9519 232.916 25.5583 234.181 27.6119C235.448 29.6656 236.081 32.0504 236.081 34.7664C236.081 37.4163 235.448 39.7846 234.181 41.8713C232.916 43.925 231.166 45.5479 228.931 46.7403C226.698 47.9328 224.166 48.529 221.331 48.529ZM221.331 42.1694C222.631 42.1694 223.798 41.8713 224.831 41.2751C225.866 40.6789 226.681 39.8342 227.281 38.7412C227.881 37.6151 228.181 36.29 228.181 34.7664C228.181 33.2096 227.881 31.8848 227.281 30.7917C226.681 29.6987 225.866 28.854 224.831 28.2578C223.798 27.6616 222.631 27.3635 221.331 27.3635C220.031 27.3635 218.866 27.6616 217.831 28.2578C216.798 28.854 215.966 29.6987 215.331 30.7917C214.731 31.8848 214.431 33.2096 214.431 34.7664C214.431 36.29 214.731 37.6151 215.331 38.7412C215.966 39.8342 216.798 40.6789 217.831 41.2751C218.866 41.8713 220.031 42.1694 221.331 42.1694ZM247.863 48.1315L236.563 21.4014H244.613L254.013 44.4052H250.013L259.763 21.4014H267.263L255.913 48.1315H247.863ZM282.514 48.529C279.647 48.529 277.097 47.9328 274.864 46.7403C272.664 45.5479 270.914 43.925 269.614 41.8713C268.347 39.7846 267.714 37.4163 267.714 34.7664C267.714 32.0835 268.347 29.7153 269.614 27.6616C270.914 25.5749 272.664 23.9519 274.864 22.7926C277.097 21.6001 279.647 21.0039 282.514 21.0039C285.347 21.0039 287.88 21.6001 290.114 22.7926C292.347 23.9519 294.097 25.5583 295.364 27.6119C296.63 29.6656 297.264 32.0504 297.264 34.7664C297.264 37.4163 296.63 39.7846 295.364 41.8713C294.097 43.925 292.347 45.5479 290.114 46.7403C287.88 47.9328 285.347 48.529 282.514 48.529ZM282.514 42.1694C283.814 42.1694 284.98 41.8713 286.014 41.2751C287.047 40.6789 287.864 39.8342 288.464 38.7412C289.064 37.6151 289.364 36.29 289.364 34.7664C289.364 33.2096 289.064 31.8848 288.464 30.7917C287.864 29.6987 287.047 28.854 286.014 28.2578C284.98 27.6616 283.814 27.3635 282.514 27.3635C281.214 27.3635 280.047 27.6616 279.014 28.2578C277.98 28.854 277.147 29.6987 276.514 30.7917C275.914 31.8848 275.614 33.2096 275.614 34.7664C275.614 36.29 275.914 37.6151 276.514 38.7412C277.147 39.8342 277.98 40.6789 279.014 41.2751C280.047 41.8713 281.214 42.1694 282.514 42.1694Z" fill="black"/>
<path fill-rule="evenodd" clip-rule="evenodd" d="M7.8267 49.4373C12.8236 54.9636 19.8718 58.5632 27.7535 59.0051C28.0431 58.7081 28.3404 58.4026 28.6449 58.0892C32.8822 53.7268 38.5041 47.8228 44.0534 41.6462C49.2628 35.8479 54.3764 29.8443 58.2182 24.666C57.8182 22.2251 57.122 19.8852 56.1682 17.6854C55.9609 17.8071 55.7509 17.9312 55.5383 18.0577C49.2588 21.7946 41.1617 27.3554 32.9555 32.9912L32.9553 32.9913L31.5516 33.9553C22.9408 39.8669 14.307 45.7585 7.8267 49.4373ZM58.5868 30.7628C55.1289 35.1297 51.081 39.8229 47.018 44.3452C42.2916 49.6059 37.5191 54.6638 33.5841 58.7503C47.341 56.7553 58.0031 45.0734 58.5868 30.7628ZM54.3213 14.114C54.0484 14.2735 53.7729 14.4361 53.4948 14.6016C47.0997 18.4073 38.9031 24.0367 30.747 29.6383L30.747 29.6383L29.2921 30.6374C20.6133 36.5957 12.1133 42.3915 5.80758 45.9664C5.64128 46.0607 5.47704 46.1531 5.31487 46.2437C4.25445 44.6863 3.33808 43.021 2.58521 41.2673C3.30094 40.2768 4.09098 39.2423 4.94571 38.1719C9.09602 32.9744 14.6336 27.0994 20.2032 21.5528C25.7648 16.0141 31.3222 10.8387 35.4919 7.04572C37.5759 5.15 39.3113 3.60137 40.5249 2.52742C40.6065 2.45524 40.6857 2.38519 40.7625 2.31734C46.4086 4.7292 51.1483 8.8838 54.3213 14.114ZM36.3763 0.847637C34.1402 0.293733 31.803 0 29.3979 0C13.2634 0 0.183838 13.219 0.183838 29.5256C0.183838 31.983 0.480897 34.3703 1.0407 36.6529C1.29928 36.3203 1.5631 35.9856 1.83176 35.6492C6.12043 30.2784 11.7804 24.2807 17.3903 18.694C23.0081 13.0994 28.6121 7.88086 32.8089 4.06329C34.158 2.83604 35.3626 1.75284 36.3763 0.847637Z" fill="black"/>
</g>
<defs>
<clipPath id="clip0_75_3">
<rect width="300" height="59" fill="white"/>
</clipPath>
</defs>
</svg>
